<?xml version="1.0" standalone="no"?><!DOCTYPE svg PUBLIC "-//W3C//DTD SVG 1.1//EN" "http://www.w3.org/Graphics/SVG/1.1/DTD/svg11.dtd"><svg t="1561951861347" class="icon" viewBox="0 0 1026 1024" version="1.1" xmlns="http://www.w3.org/2000/svg" p-id="567" xmlns:xlink="http://www.w3.org/1999/xlink" width="200.390625" height="200"><defs><style type="text/css"></style></defs><path d="M968.704 197.632q23.552 0 38.912 15.36t15.36 36.864l0 528.384q0 21.504-15.36 36.864t-38.912 15.36l-655.36 0-1.024 0-2.048 0q-5.12 0-14.848-2.048t-14.848-6.144l-1.024-1.024-1.024-1.024-262.144-257.024 0-1.024q-18.432-15.36-18.432-48.128 0-15.36 4.608-27.648t12.8-20.48l262.144-256q2.048-2.048 10.24-6.144 10.24-6.144 25.6-6.144l655.36 0zM834.56 658.432q9.216-14.336 3.072-25.6t-20.48-25.6q-17.408-17.408-47.616-45.056t-65.024-59.392q37.888-35.84 69.632-66.56t49.152-48.128q12.288-11.264 12.288-26.112t-13.312-26.112q-2.048-2.048-6.144-5.632t-6.144-4.608q-14.336-9.216-28.16-7.168t-25.088 13.312q-17.408 17.408-49.152 47.104t-67.584 63.488q-31.744-29.696-58.88-55.808t-44.544-43.52q-19.456-20.48-34.816-23.552t-27.648 4.096q-2.048 2.048-9.728 7.168t-9.728 7.168q-13.312 11.264-8.704 28.16t30.208 42.496q16.384 15.36 43.008 40.448t57.344 54.784q-32.768 30.72-60.416 56.832t-45.056 43.52q-14.336 13.312-23.04 29.696t1.536 29.696q2.048 2.048 8.704 8.192t8.704 8.192q14.336 11.264 32.256 7.68t35.328-20.992 45.056-44.544 60.416-57.856q34.816 32.768 64.512 60.928t48.128 46.592q13.312 12.288 30.72 16.384t28.672-4.096l4.096-4.096t7.68-8.704 6.656-8.192 4.096-4.608z" p-id="568" data-spm-anchor-id="a313x.7781069.0.i0" class="" fill="#2c3e50"></path></svg>